<svg xmlns="http://www.w3.org/2000/svg" width="28" height="20.005" viewBox="0 0 28 20.005">
  <path id="icn-Destinations" d="M940.613,1463.218l-2.333-9.109a.892.892,0,0,0-.864-.672h-3.6L931.654,1445a.893.893,0,0,0-.864-.672h-8.3a.894.894,0,0,0-.864.672l-2.162,8.439h-3.6a.894.894,0,0,0-.864.672l-2.334,9.109a.893.893,0,0,0,.865,1.114h12.955a.832.832,0,0,0,.15-.034.879.879,0,0,0,.146.034h12.956a.893.893,0,0,0,.871-1.114Zm-13.972-2.812-1.328-5.184h2.655Zm-3.461-14.293h6.914l1.873,7.324H921.31Zm-8.5,16.433,1.869-7.323h6.914l1.873,7.323Zm13.253,0,1.869-7.323h6.914l1.873,7.323Z" transform="translate(-912.641 -1444.327)" fill="#fff"/>
</svg>
