<svg xmlns="http://www.w3.org/2000/svg" width="28" height="28.001" viewBox="0 0 28 28.001"><path d="M1013.373,1456.923h-.76a.49.49,0,0,1-.458-.322c-.086-.222-.178-.444-.277-.664a.49.49,0,0,1,.1-.553l.542-.542a2.273,2.273,0,0,0,0-3.2l-1.951-1.951a2.273,2.273,0,0,0-3.2,0l-.542.541a.493.493,0,0,1-.554.1c-.2-.09-.414-.181-.667-.282a.49.49,0,0,1-.321-.459v-.76a2.265,2.265,0,0,0-2.264-2.264h-2.762a2.266,2.266,0,0,0-2.264,2.264v.76a.488.488,0,0,1-.322.459c-.222.086-.444.177-.663.277a.493.493,0,0,1-.554-.1l-.542-.541a2.274,2.274,0,0,0-3.2,0l-1.951,1.957a2.275,2.275,0,0,0,0,3.2l.542.542a.488.488,0,0,1,.1.553c-.1.219-.191.436-.278.666a.483.483,0,0,1-.463.319h-.76a2.266,2.266,0,0,0-2.264,2.264v2.762a2.267,2.267,0,0,0,2.264,2.264h.76a.489.489,0,0,1,.458.322c.086.221.177.444.277.664a.489.489,0,0,1-.1.553l-.542.542a2.275,2.275,0,0,0,0,3.2l1.951,1.951a2.275,2.275,0,0,0,3.2,0l.542-.541a.493.493,0,0,1,.554-.1c.2.09.414.181.667.282a.485.485,0,0,1,.323.458v.76a2.267,2.267,0,0,0,2.264,2.264h2.762a2.266,2.266,0,0,0,2.264-2.264v-.76a.489.489,0,0,1,.322-.458c.222-.086.445-.178.663-.277a.492.492,0,0,1,.554.1l.542.542a2.277,2.277,0,0,0,3.2,0l1.951-1.951a2.273,2.273,0,0,0,0-3.2l-.542-.542a.492.492,0,0,1-.1-.554c.09-.2.181-.414.282-.666a.488.488,0,0,1,.458-.321h.761a2.266,2.266,0,0,0,2.264-2.264v-2.762a2.266,2.266,0,0,0-2.265-2.268Zm.5,5.025a.5.5,0,0,1-.5.5h-.76a2.285,2.285,0,0,0-2.112,1.459c-.072.188-.15.376-.233.56a2.284,2.284,0,0,0,.453,2.533l.54.541a.5.5,0,0,1,0,.7l-1.955,1.955a.5.5,0,0,1-.7,0l-.542-.542a2.281,2.281,0,0,0-2.532-.453c-.182.086-.37.161-.559.233a2.285,2.285,0,0,0-1.454,2.112v.76a.5.5,0,0,1-.5.5h-2.762a.5.5,0,0,1-.5-.5v-.761a2.285,2.285,0,0,0-1.46-2.112c-.188-.071-.376-.15-.56-.233a2.243,2.243,0,0,0-.931-.2,2.283,2.283,0,0,0-1.6.654l-.541.54a.5.5,0,0,1-.352.146h0a.5.5,0,0,1-.352-.146l-1.951-1.95a.5.5,0,0,1,0-.7l.542-.542a2.284,2.284,0,0,0,.453-2.532c-.086-.182-.161-.37-.233-.559a2.284,2.284,0,0,0-2.112-1.46h-.76a.5.5,0,0,1-.5-.5h0v-2.762a.5.5,0,0,1,.5-.5h.76a2.287,2.287,0,0,0,2.113-1.459c.071-.188.15-.377.233-.56a2.283,2.283,0,0,0-.453-2.533l-.542-.541a.5.5,0,0,1,0-.7l1.951-1.951a.5.5,0,0,1,.7,0l.542.542a2.281,2.281,0,0,0,2.532.453c.182-.086.37-.161.559-.233a2.285,2.285,0,0,0,1.461-2.112v-.76a.5.5,0,0,1,.5-.5h2.762a.5.5,0,0,1,.5.5h0v.76a2.287,2.287,0,0,0,1.459,2.113c.188.071.376.15.56.233a2.284,2.284,0,0,0,2.533-.453l.54-.539a.5.5,0,0,1,.7,0l1.951,1.951a.5.5,0,0,1,0,.7l-.542.542a2.284,2.284,0,0,0-.453,2.532c.086.182.161.37.233.559a2.287,2.287,0,0,0,2.112,1.454h.76a.5.5,0,0,1,.5.5Zm-12.24,4.851a6.235,6.235,0,1,1,3.006-11.7.825.825,0,0,1-.755,1.466l-.041-.022a4.584,4.584,0,1,0,1.808,1.809.824.824,0,1,1,1.443-.8h0a6.237,6.237,0,0,1-5.463,9.24Z" transform="translate(-987.64 -1446.567)" fill="#fff"/></svg>