<svg xmlns="http://www.w3.org/2000/svg" width="27" height="26.995" viewBox="0 0 27 26.995">
  <path id="icn-MyTrips" d="M840.316,1192.245a.844.844,0,0,0-.844.844v9.554l-6.75,2.7v-8.882a.844.844,0,1,0-1.688,0v8.878l-6.75-2.7V1189.27l3.907,1.563a.844.844,0,1,0,.626-1.568l-5.051-2.022-.014-.005a.831.831,0,0,0-.626,0l-.016.005-8.421,3.37a.844.844,0,0,0-.53.781v15.187a.844.844,0,0,0,.844.842.857.857,0,0,0,.313-.061l8.123-3.249,8.108,3.243.015.007a.838.838,0,0,0,.626,0l.015-.007,8.421-3.368a.85.85,0,0,0,.528-.781v-10.122A.843.843,0,0,0,840.316,1192.245Zm-17.718,10.4-6.75,2.7v-13.369l6.75-2.7Zm15.187-16.3a2.531,2.531,0,1,0-2.531,2.531A2.533,2.533,0,0,0,837.786,1186.339Zm-3.67,0a1.139,1.139,0,1,1,1.139,1.136v0A1.14,1.14,0,0,1,834.115,1186.339Zm1.7,9.059a.733.733,0,0,0,.064-.064c.54-.6,5.278-5.97,5.278-9a5.906,5.906,0,0,0-11.812,0c0,3.031,4.738,8.4,5.278,9A.843.843,0,0,0,835.818,1195.4Zm-.565-13.282a4.219,4.219,0,0,1,4.218,4.219c0,1.608-2.374,4.965-4.219,7.15-1.843-2.185-4.218-5.54-4.218-7.15A4.219,4.219,0,0,1,835.253,1182.117Z" transform="translate(-814.161 -1180.43)" fill="#fff"/>
</svg>
