<svg xmlns="http://www.w3.org/2000/svg" width="28" height="19.6" viewBox="0 0 28 19.6"><path d="M14.28,3.715a.56.56,0,0,0-.56,0l-4.85,2.8A.56.56,0,0,0,8.59,7v5.6a.56.56,0,0,0,.28.485l4.85,2.8a.56.56,0,0,0,.56,0l4.85-2.8a.56.56,0,0,0,.28-.485V7a.56.56,0,0,0-.28-.485Zm4.01,8.562L14,14.753,9.71,12.277V7.323L14,4.847l4.29,2.477Zm8.068.323V2.426a.784.784,0,0,0-.784-.784H2.426a.784.784,0,0,0-.784.784V17.174a.784.784,0,0,0,.784.784H25.574a.784.784,0,0,0,.784-.784V15.96a.821.821,0,1,1,1.642,0v1.176A2.464,2.464,0,0,1,25.536,19.6H2.464A2.464,2.464,0,0,1,0,17.136V2.464A2.464,2.464,0,0,1,2.464,0H25.536A2.464,2.464,0,0,1,28,2.464V12.6a.821.821,0,1,1-1.642,0" fill="#fff"/></svg>