<svg xmlns="http://www.w3.org/2000/svg" width="28" height="28.001" viewBox="0 0 28 28.001"><path d="M934.139,1466.091a14,14,0,0,1-22.8,10.888.826.826,0,1,1,1.039-1.284,12.352,12.352,0,1,0-1.842-1.843.825.825,0,1,1-1.283,1.039,14,14,0,1,1,24.888-8.8Zm-8.554-7.058a.791.791,0,0,0-.239-1.091,9.636,9.636,0,1,0,2.23,1.963.789.789,0,1,0-1.212,1.009,8.079,8.079,0,1,1-1.872-1.654A.79.79,0,0,0,925.585,1459.033Zm-5.445,13.307a.737.737,0,0,0,.737-.737v-.554a2.669,2.669,0,0,0,2.45-2.509c0-1.68-1.584-2.472-2.858-3.109-1.051-.525-2.043-1.021-2.043-1.792s.888-1.1,1.714-1.1,1.714.345,1.714,1.1a.737.737,0,1,0,1.473,0,2.668,2.668,0,0,0-2.45-2.509v-.554a.737.737,0,0,0-1.473,0v.554a2.668,2.668,0,0,0-2.45,2.509c0,1.68,1.584,2.472,2.858,3.109,1.051.526,2.043,1.022,2.043,1.792s-.888,1.1-1.714,1.1-1.714-.345-1.714-1.1a.737.737,0,0,0-1.473,0,2.668,2.668,0,0,0,2.45,2.509v.554A.736.736,0,0,0,920.14,1472.339Z" transform="translate(-906.139 -1452.09)" fill="#fff"/></svg>