<?xml version="1.0" encoding="utf-8"?>
<!-- Generator: Adobe Illustrator 26.0.1, SVG Export Plug-In . SVG Version: 6.00 Build 0)  -->
<svg version="1.1" id="Layer_1" xmlns="http://www.w3.org/2000/svg" xmlns:xlink="http://www.w3.org/1999/xlink" x="0px" y="0px"
	 viewBox="0 0 20 20" style="enable-background:new 0 0 20 20;" xml:space="preserve">
<style type="text/css">
	.st0{fill:none;}
</style>
<path transform="translate(9389 19828)" class="st0" d="M-9379-19827c-5,0-9,4-9,9s4,9,9,9s9-4,9-9
	C-9370-19823-9374-19827-9379-19827 M-9379-19828c5.5,0,10,4.5,10,10s-4.5,10-10,10s-10-4.5-10-10S-9384.5-19828-9379-19828z
	 M-9380.9-19818l4-4c0.3-0.3,0.3-0.8,0-1.1c0,0,0,0,0,0c-0.3-0.3-0.8-0.3-1.1,0l-4.5,4.5c-0.3,0.3-0.3,0.7,0,1l4.5,4.5
	c0.3,0.3,0.8,0.3,1.1,0c0.3-0.3,0.3-0.8,0-1L-9380.9-19818z"/>
</svg>
