<svg xmlns="http://www.w3.org/2000/svg" width="20.068" height="20" viewBox="0 0 20.068 20"><path d="M1098.809,2274.332a.942.942,0,0,1-.97.915h-7.411a2.592,2.592,0,0,1-2.589-2.589v-14.821a2.593,2.593,0,0,1,2.589-2.589h7.411a.943.943,0,1,1,0,1.885h-7.411a.705.705,0,0,0-.7.7v14.822a.706.706,0,0,0,.7.7h7.467A.942.942,0,0,1,1098.809,2274.332Zm8.817-9.756-5.006-4.94a.924.924,0,0,0-.661-.272h-.006a.942.942,0,0,0-.658,1.613l3.371,3.326h-9.3a.943.943,0,0,0,0,1.885h9.3l-3.371,3.326a.943.943,0,0,0,1.324,1.342l5.006-4.94a.953.953,0,0,0,.281-.672A.936.936,0,0,0,1107.627,2264.575Z" transform="translate(-1087.839 -2255.247)" fill="#fff"/></svg>