<svg xmlns="http://www.w3.org/2000/svg" width="28" height="18.884" viewBox="0 0 28 18.884">
  <path id="icn-Contact" d="M1089.086,2254.081H1064.54a1.731,1.731,0,0,0-1.727,1.728v15.429a1.73,1.73,0,0,0,1.727,1.727h24.545a1.728,1.728,0,0,0,1.727-1.727v-15.429A1.729,1.729,0,0,0,1089.086,2254.081Zm-11.663,9.324a1.049,1.049,0,0,1-.606.175h-.011a1.043,1.043,0,0,1-.6-.177l-10.16-7.62h21.544Zm-6.425,1.3a.852.852,0,0,0-1.322-1.072l-5.162,6.295v-13.161l10.667,8a2.835,2.835,0,0,0,3.264,0l10.666-8v13.16l-5.157-6.3a.852.852,0,0,0-1.365,1.021c.014.018.028.035.043.052l5.375,6.568H1065.62Z" transform="translate(-1062.813 -2254.081)" fill="#fff"/>
</svg>
