<?xml version="1.0" encoding="utf-8"?>
<!-- Generator: Adobe Illustrator 26.0.1, SVG Export Plug-In . SVG Version: 6.00 Build 0)  -->
<svg version="1.1" id="Layer_1" xmlns="http://www.w3.org/2000/svg" xmlns:xlink="http://www.w3.org/1999/xlink" x="0px" y="0px"
	 viewBox="0 0 20 20" style="enable-background:new 0 0 20 20;" xml:space="preserve">
<style type="text/css">
	.st0{fill:#CCCCCC;}
</style>
<path class="st0" d="M10,0C4.5,0,0,4.5,0,10s4.5,10,10,10s10-4.5,10-10S15.5,0,10,0z M14.1,10.5L9.6,15c-0.3,0.3-0.8,0.3-1.1,0
	c-0.3-0.3-0.3-0.8,0-1.1c0,0,0,0,0,0l4-4l-4-4C8.2,5.7,8.2,5.3,8.5,5c0,0,0,0,0,0c0.3-0.3,0.8-0.3,1.1,0l4.5,4.5
	C14.3,9.8,14.3,10.2,14.1,10.5z"/>
</svg>
