<svg xmlns="http://www.w3.org/2000/svg" width="28" height="27.997" viewBox="0 0 28 27.997"><path d="M981.842,1507.763a14,14,0,1,0,4.1,9.9A13.905,13.905,0,0,0,981.842,1507.763Zm-9.9,22.039a12.158,12.158,0,0,1-8.978-3.978,12.129,12.129,0,0,1,17.955,0A12.16,12.16,0,0,1,971.939,1529.8Zm5.488-8.7a13.977,13.977,0,0,0-15.627,3.233,12.135,12.135,0,0,1,10.139-18.8h0a12.134,12.134,0,0,1,10.138,18.8A13.861,13.861,0,0,0,977.427,1521.1Zm-5.487-12.6a5.029,5.029,0,1,0,5.03,5.029A5.034,5.034,0,0,0,971.94,1508.5Zm0,8.126a3.1,3.1,0,1,1,3.1-3.1A3.1,3.1,0,0,1,971.94,1516.629Z" transform="translate(-957.943 -1503.668)" fill="#fff"/></svg>