<svg id="icn-Favorite" xmlns="http://www.w3.org/2000/svg" width="27.429" height="24" viewBox="0 0 27.429 24">
  <path id="icn-Favorite-Active" d="M24.754,33.608a7.326,7.326,0,0,0-10,.729L13.7,35.424l-1.055-1.087a7.325,7.325,0,0,0-10-.729,7.692,7.692,0,0,0-.53,11.137l10.366,10.7a1.679,1.679,0,0,0,2.427,0l10.366-10.7a7.687,7.687,0,0,0-.525-11.137Z" transform="translate(0.012 -31.966)" fill="rgba(84,84,84,0.25)"/>
  <path id="icn-Favorite-2" data-name="icn-Favorite" d="M24.55,33.709a8.067,8.067,0,0,0-10.84.8,8.062,8.062,0,0,0-10.84-.8A8.1,8.1,0,0,0,2.3,45.556L11.7,55.127a2.813,2.813,0,0,0,4.027.005l9.394-9.571A8.109,8.109,0,0,0,24.55,33.709ZM23.286,43.751l-9.394,9.571a.22.22,0,0,1-.364,0L4.134,43.751a5.523,5.523,0,0,1,.391-8.071,5.43,5.43,0,0,1,7.311.562l1.874,1.912,1.874-1.912a5.426,5.426,0,0,1,7.311-.568A5.547,5.547,0,0,1,23.286,43.751Z" transform="translate(0.001 -31.978)" fill="#fff"/>
</svg>
